# xmcd
#
# Track frame offsets:
#	150
#	17015
#	35982
#	53009
#	68266
#	84859
#	98854
#	114275
#	128355
#	142165
#	159103
#	178053
#
# Disc length: 2673 seconds
#
# Revision: 1
# Processed by: cddbd v1.5.2PL0 Copyright (c) Steve Scherf et al.
# Submitted via: audiograbber 1.83.01
#
DISCID=8c0a6f0c
DTITLE=Blake Shelton - Hillbilly Bone and All About Tonight
DYEAR=1900
DGENRE=Country
TTITLE0=Hillbilly Bone
TTITLE1=Kiss My Country Ass
TTITLE2=You'll Always Be Beautiful
TTITLE3=Can't Afford To Love You
TTITLE4=Delilah
TTITLE5=Almost Alright
TTITLE6=All About Tonight
TTITLE7=Who Are You When I'm Not Looking
TTITLE8=That Thing We Do
TTITLE9=Draggin' The River
TTITLE10=Suffocating
TTITLE11=Got A Little Coutry
EXTD=
EXTT0=
EXTT1=
EXTT2=
EXTT3=
EXTT4=
EXTT5=
EXTT6=
EXTT7=
EXTT8=
EXTT9=
EXTT10=
EXTT11=
PLAYORDER=
